<svg width="46" height="46" viewBox="0 0 46 46" fill="none" xmlns="http://www.w3.org/2000/svg">
<circle cx="23" cy="23" r="22.5" fill="white" fill-opacity="0.1" stroke="white"/>
<path fill-rule="evenodd" clip-rule="evenodd" d="M32.1445 14.5463C31.5792 14.6408 31.8918 14.3503 25.7149 20.5206L20.001 26.2283L17.3879 23.6229C14.9671 21.2091 14.755 21.0088 14.5037 20.8994C13.708 20.5533 12.7758 20.8245 12.3008 21.5402C12.1048 21.8356 12.022 22.127 12.022 22.5213C12.022 22.9025 12.1014 23.1956 12.2796 23.4718C12.3502 23.5811 13.8871 25.148 15.6949 26.9537C19.2869 30.5416 19.126 30.4007 19.742 30.4984C20.1052 30.5559 20.4438 30.5021 20.8201 30.3271C21.0909 30.2012 21.4653 29.8354 27.5128 23.7879C33.6681 17.6325 33.9242 17.3701 34.0616 17.0784C34.1962 16.7925 34.2045 16.747 34.2045 16.2978C34.2045 15.8548 34.195 15.8005 34.0708 15.5387C33.7268 14.8127 32.9485 14.4118 32.1445 14.5463Z" fill="white"/>
</svg>
