<svg width="262" height="95" viewBox="0 0 262 95" fill="none" xmlns="http://www.w3.org/2000/svg">
<g clip-path="url(#clip0_127_1687)">
<path d="M139.716 53.6502C135.226 53.6502 131.792 52.3416 129.415 49.9863C127.038 47.6309 125.718 43.967 125.718 39.2563V20.9367H132.849V39.2563C132.849 41.8733 133.377 43.7053 134.698 45.2755C136.018 46.5841 137.603 47.3692 139.716 47.3692C141.829 47.3692 143.677 46.5841 144.734 45.2755C146.054 43.967 146.583 42.135 146.583 39.518V20.9367H153.714V39.2563C153.714 43.967 152.393 47.6309 150.016 49.9863C147.375 52.6034 143.942 53.6502 139.716 53.6502ZM160.845 53.3885V21.1984H168.504L176.956 34.8072L185.407 21.1984H193.067V53.3885H185.935V32.4518L176.956 46.3224H176.692L167.712 32.7136V53.6502H160.845V53.3885ZM230.571 53.3885L241.927 36.9009L231.099 21.1984H239.286L246.153 31.6667L253.02 21.1984H260.944L250.115 36.9009L261.208 53.3885H253.02L245.889 42.3967L238.494 53.3885H230.571ZM195.444 53.3885L209.177 20.9367H215.78L229.514 53.3885H222.119L219.742 47.6309H204.952L202.575 53.3885H195.444ZM207.593 41.3499H217.101L212.347 29.5731L207.593 41.3499ZM125.454 63.5951H129.151C132.585 63.5951 134.962 65.9505 134.962 69.091C134.962 72.2315 132.585 74.5868 129.151 74.5868H125.454V63.5951ZM129.151 73.2783C131.792 73.2783 133.641 71.4463 133.641 69.091C133.641 66.7356 131.792 64.9036 129.151 64.9036H126.51V73.2783H129.151ZM137.867 63.5951H139.188V74.3251H137.867V63.5951ZM141.829 69.091C141.829 66.2122 143.942 63.5951 147.375 63.5951C149.224 63.5951 150.28 64.1185 151.337 65.1653L150.544 65.9505C149.752 65.1653 148.696 64.6419 147.111 64.6419C144.734 64.6419 142.885 66.7356 142.885 69.091C142.885 71.708 144.47 73.54 147.111 73.54C148.431 73.54 149.488 73.0166 150.28 72.4932V69.8761H146.847V68.8292H151.337V73.2783C150.28 74.0634 148.696 74.8485 146.847 74.8485C143.942 74.5868 141.829 72.2315 141.829 69.091ZM154.506 63.5951H155.827V74.3251H154.506V63.5951ZM161.901 64.9036H158.204V63.8568H166.919V64.9036H163.222V74.5868H161.901V64.9036ZM171.938 63.5951H172.994L178.012 74.5868H176.692L175.371 71.708H169.296L167.976 74.5868H166.655L171.938 63.5951ZM174.843 70.6612L172.466 65.1653L169.825 70.6612H174.843ZM180.125 63.5951H181.446V73.2783H187.52V74.3251H180.125V63.5951ZM198.613 63.5951H199.669L204.687 74.5868H203.367L202.046 71.708H195.972L194.651 74.5868H193.331L198.613 63.5951ZM201.518 70.6612L199.141 65.1653L196.764 70.6612H201.518ZM205.744 69.091C205.744 66.2122 207.857 63.5951 211.29 63.5951C213.139 63.5951 214.196 64.1185 215.252 65.1653L214.46 66.2122C213.667 65.427 212.611 64.9036 211.026 64.9036C208.649 64.9036 206.8 66.9973 206.8 69.3527C206.8 71.9697 208.385 73.8017 211.026 73.8017C212.347 73.8017 213.403 73.2783 214.196 72.7549V70.1378H211.29V69.091H215.78V73.54C214.724 74.3251 213.139 75.1102 211.29 75.1102C207.857 74.5868 205.744 72.2315 205.744 69.091ZM218.421 63.5951H226.345V64.6419H219.742V68.3058H225.817V69.3527H219.742V73.2783H226.609V74.3251H218.685V63.5951H218.421ZM228.986 63.5951H230.042L236.909 72.2315V63.5951H238.23V74.5868H237.173L230.042 65.6888V74.5868H228.722V63.5951H228.986ZM240.871 69.091C240.871 65.9505 243.248 63.5951 246.417 63.5951C248.53 63.5951 249.587 64.3802 250.643 65.427L249.851 66.2122C249.058 65.427 248.002 64.6419 246.417 64.6419C244.04 64.6419 242.192 66.4739 242.192 69.091C242.192 71.708 244.04 73.54 246.417 73.54C248.002 73.54 248.794 73.0166 249.851 71.9697L250.643 72.7549C249.587 73.8017 248.266 74.5868 246.153 74.5868C243.248 74.5868 240.871 72.2315 240.871 69.091ZM256.19 70.1378L251.7 63.5951H253.284L256.982 69.091L260.679 63.5951H262L257.51 70.1378V74.3251H256.19V70.1378ZM39.881 47.1075C37.7681 47.1075 35.6552 46.5841 34.3347 45.2755C33.0141 43.967 32.4859 42.135 32.4859 39.7797V30.3582H36.1835V39.518C36.1835 40.8265 36.4476 41.8733 36.9758 42.3967C37.504 43.1819 38.8246 43.4436 39.881 43.4436C40.9375 43.4436 41.994 43.1819 42.7863 42.3967C43.3145 41.6116 43.5786 40.8265 43.5786 39.518V30.0965H47.2762V39.2563C47.2762 41.6116 46.748 43.4436 45.4274 44.7521C44.1069 46.3224 42.2581 47.1075 39.881 47.1075ZM55.7278 46.8458V30.6199H59.6895L63.9153 36.6392L68.1411 30.6199H72.1028V46.8458H68.6693V36.1158L64.1794 42.135L59.6895 36.1158V46.5841H55.7278V46.8458ZM31.6935 69.6144L38.5605 53.1268H41.9939L48.8609 69.6144H45.1633L43.8427 66.7356H36.4476L35.3911 69.6144H31.6935ZM37.7681 63.5951H42.5222L40.4093 57.5758L37.7681 63.5951ZM55.9919 69.6144L61.5383 61.2397L55.9919 53.1268H60.2177L63.6512 58.3609L67.0847 53.1268H71.0464L65.5 60.978L71.0464 69.3527H66.8206L63.123 63.8568L59.4254 69.3527H55.9919V69.6144ZM66.8206 6.01934L64.7077 3.14056C62.5948 0.785184 59.1613 -0.523356 55.9919 5.9627e-05L20.6008 4.97251C17.4315 5.75763 14.7903 7.8513 13.7339 10.9918L0.528226 47.3692C-0.528226 50.5097 0 53.9119 2.1129 56.2673L26.1472 84.0083C27.2036 85.3168 28.5242 86.102 29.8448 86.6254C31.1653 87.6722 32.75 88.4574 34.3347 88.7191L70.7823 94.7383C73.9516 95.2618 77.3851 93.9532 79.498 91.5978L104.853 58.6226C106.966 56.0056 107.494 52.6034 106.437 49.7246L91.6472 20.1516C90.5907 17.0111 87.6855 14.9174 84.5161 14.394L81.0827 14.1323L78.9698 10.4684C77.3851 7.58959 74.2157 6.01934 71.0464 6.01934H66.8206ZM7.92339 42.9202C6.33871 45.799 6.33871 49.2012 7.92339 52.0799L23.7702 78.5124L3.69758 55.2204C1.84879 53.1268 1.32056 50.5097 2.37702 47.8926L15.5827 11.5152C16.375 9.15984 18.4879 7.32788 21.129 6.80447L56.5202 1.83202C59.1613 1.3086 61.8024 2.35543 63.3871 4.18739L64.7077 6.01934L33.8064 6.28105C30.6371 6.28105 27.4677 8.11301 25.8831 10.9918L7.92339 42.9202ZM15.8468 39.7797C13.7339 42.3967 13.2056 45.799 14.2621 48.6777L25.0907 77.4656L9.24395 51.0331C7.92339 48.6777 7.92339 46.0607 9.24395 43.7053L27.4677 11.7769C28.7883 9.42155 31.1653 8.11301 33.8064 8.11301L66.0282 7.8513L69.7258 13.0855L45.9556 10.9918C42.7863 10.4684 39.6169 11.7769 37.504 14.1323L15.8468 39.7797ZM78.7056 13.8706L72.1028 13.0855L68.1411 7.8513H70.7823C73.4234 7.8513 75.8004 9.15984 77.121 11.5152L78.7056 13.8706ZM97.7218 52.8651C99.3064 49.9863 99.3064 46.5841 97.7218 43.7053L81.875 15.7025L83.9879 15.9642C86.629 16.4877 88.7419 18.3196 89.5343 20.675L89.7984 20.9367L104.589 50.5097C105.381 52.8651 105.117 55.7439 103.268 57.5758L77.9133 90.551C76.3286 92.6447 73.6875 93.4298 71.0464 93.1681L40.1452 88.1956L71.5746 87.9339C74.7439 87.9339 77.9133 86.102 79.498 83.2232L97.7218 52.8651ZM45.9556 12.8237L71.3105 14.9174L86.629 35.854C88.4778 37.9477 88.7419 40.5648 87.9496 43.1819L76.5927 73.8017C75.8004 76.1571 73.6875 77.989 71.0464 78.5124L34.8629 85.3168C33.5423 85.5786 32.4859 85.5786 31.1653 85.0551C30.373 84.27 29.5806 83.2232 29.3165 82.1764L16.1109 48.1543C15.5827 46.8458 15.5827 45.5372 15.8468 44.4904C15.8468 43.1819 16.375 41.8733 17.1673 40.8265L38.8246 15.4408C40.4093 13.3472 43.0504 12.3003 45.9556 12.8237ZM87.9496 34.8072L73.6875 15.1791L79.7621 15.7025L96.1371 44.7521C97.4577 47.1075 97.4577 49.7246 96.1371 52.0799L77.9133 82.1764C76.5927 84.5317 74.2157 85.8403 71.5746 85.8403L40.1452 86.102L71.3105 80.3444C74.4798 79.821 77.121 77.4656 78.1774 74.3251L89.5343 43.4436C90.5907 40.5648 90.0625 37.1626 87.9496 34.8072Z" fill="black"/>
</g>
<defs>
<clipPath id="clip0_127_1687">
<rect width="262" height="95" fill="white"/>
</clipPath>
</defs>
</svg>
