<svg width="50" height="50" viewBox="0 0 50 50" fill="none" xmlns="http://www.w3.org/2000/svg">
<path d="M25.3915 0.00790114L25.3861 0.507872C24.702 0.50046 24.0368 0.498444 23.5165 0.501143C22.9791 0.503932 22.6337 0.511907 22.5578 0.520007L25.3915 0.00790114ZM25.3915 0.00790114L25.3861 0.507872C27.3733 0.529348 28.0819 0.575897 28.9819 0.731137C34.0886 1.61215 38.4075 3.79408 42.11 7.36202C45.921 11.0346 48.3497 15.6665 49.2936 21.078C49.4717 22.0995 49.5 22.581 49.5 25.0065C49.5 28.0406 49.3991 28.9164 48.7926 31.2679C46.6132 39.7185 39.7155 46.614 31.2616 48.7932C28.9111 49.3991 28.0345 49.5 25 49.5C22.5738 49.5 22.0921 49.4717 21.0704 49.2936C15.653 48.3492 11.0272 45.9249 7.35067 42.1118C3.76971 38.3978 1.61052 34.1183 0.706402 28.9351C0.528285 27.9136 0.5 27.432 0.5 25.0065C0.5 22.581 0.528286 22.0995 0.706402 21.078C1.50348 16.5085 3.29527 12.618 6.17905 9.18429L5.79617 8.86273M25.3915 0.00790114L5.79617 8.86273M4.4136 20.3102L3.92601 20.1995C4.81909 16.266 6.79264 12.7487 9.76583 9.77618L9.76584 9.77617C13.5446 5.99849 17.869 3.99588 23.4328 3.43348C23.8616 3.39013 24.8074 3.40199 25.7282 3.43948C26.6537 3.47716 27.6253 3.54377 28.1136 3.62265L4.4136 20.3102ZM4.4136 20.3102L3.92601 20.1995C3.22342 23.2941 3.22342 26.719 3.92601 29.8136C4.44876 32.1161 5.63763 34.9081 6.88879 36.7632L7.30332 36.4836L6.88879 36.7632C10.1066 41.534 14.8537 44.8638 20.1917 46.0752C23.2871 46.7776 26.7129 46.7776 29.8083 46.0752C32.1112 45.5526 34.904 44.364 36.7596 43.1132L36.4801 42.6986M4.4136 20.3102L36.4801 42.6986M5.79617 8.86273L6.17905 9.18429M5.79617 8.86273L6.17905 9.18429M36.4801 42.6986L36.7596 43.1132C41.5315 39.8962 44.8623 35.1504 46.074 29.8136C46.7766 26.719 46.7766 23.2941 46.074 20.1995C45.1809 16.266 43.2074 12.7487 40.2342 9.77618L39.8807 10.1298M36.4801 42.6986L39.8807 10.1298M39.8807 10.1298L40.2342 9.77617M39.8807 10.1298L40.2342 9.77617M23.5335 23.354H23.0367H18.95C16.919 23.354 15.9133 23.3548 15.3586 23.3818C15.0818 23.3953 14.9476 23.4143 14.8669 23.4338C14.7998 23.4501 14.7607 23.4679 14.6599 23.5194L23.5335 23.354ZM23.5335 23.354L23.5367 22.8573M23.5335 23.354L23.5367 22.8573M23.5367 22.8573L23.5641 18.6102L23.5905 14.536L23.782 14.2954C23.9019 14.1449 24.1746 13.9221 24.3487 13.8331C24.5454 13.7327 24.8139 13.6677 25 13.6677C25.4078 13.6677 25.914 13.9136 26.218 14.2954L26.6091 13.9839L26.218 14.2954L26.4095 14.536L26.4359 18.6102L26.4633 22.8573L26.4665 23.354H26.9633M23.5367 22.8573L26.9633 23.354M13.873 24.7206L13.873 24.7207C13.8531 25.0931 13.9046 25.352 14.0027 25.5493C14.0993 25.7436 14.2633 25.9226 14.5466 26.098L14.2833 26.5231L14.5466 26.098L14.9011 26.3176L18.9036 26.3469L23.0463 26.3771L23.5427 26.3807V26.8771V30.9653V34.9294L23.7126 35.2511C24.2332 36.2366 25.7668 36.2366 26.2874 35.2511L26.4573 34.9294V30.9653V26.8771V26.3807L26.9537 26.3771L31.0964 26.3469L35.0989 26.3176L35.4534 26.098L35.7167 26.5231L35.4534 26.098C35.7367 25.9226 35.9007 25.7436 35.9973 25.5493C36.0954 25.352 36.1469 25.0931 36.127 24.7207L36.127 24.7206C36.1124 24.4462 36.0937 24.3254 36.0676 24.2444C36.0465 24.1791 36.0132 24.1155 35.904 23.9781L13.873 24.7206ZM13.873 24.7206C13.8876 24.4462 13.9063 24.3254 13.9324 24.2444C13.9535 24.1791 13.9869 24.1154 14.0962 23.978M13.873 24.7206L14.0962 23.978M26.9633 23.354H31.05C33.081 23.354 34.0867 23.3548 34.6414 23.3818C34.9182 23.3953 35.0524 23.4143 35.1331 23.4338C35.2002 23.4501 35.2393 23.4679 35.3401 23.5194M26.9633 23.354L35.3401 23.5194M6.17905 9.18429C10.2815 4.29934 16.1127 1.2129 22.5577 0.52002L6.17905 9.18429ZM40.2342 9.77617C36.8141 6.35712 32.9702 4.40693 28.1136 3.62266L40.2342 9.77617ZM14.0962 23.978C14.2141 23.83 14.4851 23.6087 14.6598 23.5195L14.0962 23.978ZM35.3401 23.5194C35.5148 23.6087 35.7859 23.8299 35.9038 23.978L35.3401 23.5194Z" fill="#030087" stroke="white"/>
</svg>
