<svg width="31" height="11" viewBox="0 0 31 11" fill="none" xmlns="http://www.w3.org/2000/svg">
<rect x="0.285246" y="0.285246" width="29.6656" height="9.69836" rx="1.42623" stroke="#222222" stroke-width="0.570492"/>
<path d="M11.3787 4.60582C11.5536 4.6971 11.6886 4.82641 11.7837 4.99376C11.8826 5.1573 11.932 5.34556 11.932 5.55854C11.932 5.87802 11.8084 6.14995 11.5612 6.37435C11.3178 6.59874 11.0231 6.71094 10.677 6.71094H8.9769V2.71749H10.6313C10.9736 2.71749 11.2589 2.81638 11.4871 3.01415C11.7153 3.20812 11.8294 3.45153 11.8294 3.74438C11.8294 3.91553 11.7894 4.07717 11.7096 4.2293C11.6297 4.38143 11.5194 4.50694 11.3787 4.60582ZM10.9907 3.8813C10.9907 3.81664 10.9793 3.75959 10.9565 3.71015C10.9375 3.6569 10.909 3.61127 10.8709 3.57323C10.8329 3.5352 10.7854 3.50668 10.7283 3.48766C10.6751 3.46484 10.6142 3.45343 10.5458 3.45343H9.82693V4.30346H10.5458C10.6827 4.30346 10.7911 4.26543 10.8709 4.18936C10.9508 4.10949 10.9907 4.00681 10.9907 3.8813ZM10.5914 5.91795C10.7321 5.91795 10.8462 5.87612 10.9337 5.79245C11.0212 5.70877 11.0649 5.60038 11.0649 5.46727C11.0649 5.33795 11.0212 5.23146 10.9337 5.14779C10.8462 5.06412 10.7321 5.02228 10.5914 5.02228H9.82693V5.91795H10.5914ZM15.3258 2.71749V3.52189H14.2133V6.71094H13.3462V3.52189H12.2394V2.71749H15.3258ZM18.4349 2.71749H19.2792V6.71094H18.5604L16.7519 4.21789V6.71094H15.9019V2.71749H16.6835L18.4349 5.15349V2.71749Z" fill="#222222"/>
</svg>
