<svg width="68" height="68" viewBox="0 0 68 68" fill="none" xmlns="http://www.w3.org/2000/svg">
<path d="M68 34C68 41.1169 65.7667 48.0543 61.615 53.8347C57.4632 59.615 51.6022 63.9468 44.858 66.2196C38.1138 68.4924 30.8265 68.5916 24.0229 66.5032C17.2193 64.4148 11.2427 60.2441 6.93509 54.5789C2.62753 48.9137 0.206289 42.0396 0.0125946 34.9254C-0.181099 27.8111 1.86252 20.8155 5.85544 14.9243C9.84836 9.03306 15.5893 4.54334 22.2691 2.08784C28.9489 -0.367668 36.2309 -0.665152 43.0888 1.23731L34 34H68Z" fill="#222222"/>
<path d="M44.7878 2.40038C50.9707 4.30823 56.4161 8.07386 60.3836 13.1853C64.3511 18.2968 66.6483 24.506 66.9628 30.9689L35.5 32.5L44.7878 2.40038Z" fill="#6F6F6F"/>
</svg>
