<svg width="30" height="30" viewBox="0 0 30 30" fill="none" xmlns="http://www.w3.org/2000/svg">
<path fill-rule="evenodd" clip-rule="evenodd" d="M14.5065 5.08141C14.2272 5.18877 13.9434 5.47641 13.8374 5.75976C13.7564 5.97639 13.7559 6.00526 13.7559 10.9068V15.8361L12.554 14.6383C11.1629 13.2519 11.1183 13.22 10.572 13.2234C10.187 13.2257 9.94962 13.3215 9.68538 13.5811C9.42699 13.8349 9.32706 14.0812 9.32417 14.4716C9.31987 15.0553 9.21893 14.9324 11.9116 17.6216C14.1549 19.8621 14.2955 19.9948 14.5094 20.0731C14.6584 20.1276 14.8277 20.1558 15.006 20.1558C15.1843 20.1558 15.3536 20.1276 15.5026 20.0731C15.7165 19.9948 15.8572 19.8621 18.1004 17.6216C20.7931 14.9324 20.6922 15.0553 20.6879 14.4716C20.685 14.0812 20.5851 13.8349 20.3267 13.5811C20.0624 13.3215 19.825 13.2257 19.4401 13.2234C18.8937 13.22 18.8491 13.2519 17.4581 14.6383L16.2561 15.8361V10.9068C16.2561 6.00526 16.2557 5.97639 16.1747 5.75976C15.9984 5.28858 15.5441 4.99609 14.9948 5.00004C14.8097 5.00137 14.6422 5.0293 14.5065 5.08141Z" fill="#030087" fill-opacity="0.3"/>
<path d="M5.3588 22.8531C5.47627 22.7356 5.62855 22.6321 5.75583 22.5832C5.9612 22.5043 6.01262 22.5038 14.995 22.5018L24.0276 22.4998L24.2454 22.5812C25.2609 22.9612 25.2609 24.5386 24.2454 24.9185L24.0276 25H15.0062H5.9848L5.76697 24.9185C4.95946 24.6164 4.73436 23.4775 5.3588 22.8531Z" fill="#030087" fill-opacity="0.3"/>
<path d="M5 1H25V-1H5V1ZM29 5V25H31V5H29ZM25 29H5V31H25V29ZM1 25V5H-1V25H1ZM5 29C2.79086 29 1 27.2091 1 25H-1C-1 28.3137 1.68629 31 5 31V29ZM29 25C29 27.2091 27.2091 29 25 29V31C28.3137 31 31 28.3137 31 25H29ZM25 1C27.2091 1 29 2.79086 29 5H31C31 1.68629 28.3137 -1 25 -1V1ZM5 -1C1.68629 -1 -1 1.68629 -1 5H1C1 2.79086 2.79086 1 5 1V-1Z" fill="#030087" fill-opacity="0.3"/>
</svg>
