<svg width="14" height="16" viewBox="0 0 14 16" fill="none" xmlns="http://www.w3.org/2000/svg">
<path fill-rule="evenodd" clip-rule="evenodd" d="M12.1878 15.937C12.3079 15.904 12.5306 15.8103 12.6828 15.7288C12.9168 15.6035 13.002 15.5349 13.236 15.2828C13.6093 14.881 13.7958 14.527 13.8925 14.0376C13.9541 13.7253 13.9541 2.2753 13.8925 1.96301C13.8041 1.51534 13.6173 1.13895 13.3088 0.786903C12.982 0.414077 12.6264 0.186881 12.1758 0.0632205C11.9508 0.0014682 11.8636 -9.31576e-07 8.3892 -9.31576e-07H4.83288L4.68253 0.0804082C4.39973 0.231664 4.2517 0.575458 4.32268 0.916002C4.36959 1.14098 4.47362 1.29433 4.65507 1.40602L4.80688 1.49946L8.16978 1.49999C10.3434 1.50034 11.5983 1.51196 11.7182 1.53284C11.8202 1.55059 11.956 1.59378 12.0199 1.62878C12.1949 1.72463 12.3795 1.94626 12.4481 2.1428C12.5079 2.3143 12.5081 2.33537 12.5081 8.0003C12.5081 13.6652 12.5079 13.6863 12.4481 13.8578C12.3795 14.0543 12.1949 14.276 12.0199 14.3718C11.956 14.4068 11.8202 14.45 11.7182 14.4678C11.5982 14.4887 10.3488 14.5002 8.18277 14.5003L4.83288 14.5005L4.68253 14.5809C4.39973 14.7322 4.2517 15.076 4.32268 15.4165C4.36959 15.6415 4.47362 15.7949 4.65507 15.9066L4.80688 16L8.38815 15.9986C11.8247 15.9972 11.9782 15.9947 12.1878 15.937ZM5.20956 12.2952C5.59587 12.1631 5.80201 11.6339 5.6198 11.2421C5.59398 11.1865 5.073 10.6031 4.46209 9.94568L3.35138 8.75032L6.18369 8.75032C9.30816 8.75032 9.12615 8.7617 9.33069 8.55341C9.47447 8.407 9.53695 8.23946 9.53695 8.0003C9.53695 7.76113 9.47447 7.59359 9.33069 7.44718C9.12615 7.23889 9.30816 7.25027 6.18369 7.25027H3.35138L4.46209 6.05491C5.073 5.39745 5.592 4.81737 5.61543 4.7658C5.83663 4.27894 5.50392 3.68782 5.00345 3.67851C4.6689 3.67226 4.75776 3.59154 2.83122 5.65208C1.62771 6.93932 1.04189 7.58725 1.00483 7.67216C0.937077 7.82745 0.931516 8.1443 0.993708 8.30599C1.04894 8.44963 4.49007 12.1615 4.65187 12.252C4.80164 12.3358 5.03757 12.3541 5.20956 12.2952Z" fill="#030087"/>
</svg>
