<svg width="20" height="20" viewBox="0 0 20 20" fill="none" xmlns="http://www.w3.org/2000/svg">
<path fill-rule="evenodd" clip-rule="evenodd" d="M1.55662 8.8832V17.2586H0.999504H0.442383V17.8343V18.41H0.999504H1.55662V18.9671V19.5242H2.13232H2.70801V18.9671V18.41H11.0834H19.4588V17.8343V17.2586H18.9017H18.3445V12.5045V7.75038H16.2832H14.2218V12.5045V17.2586H13.6833H13.1447V13.6373V10.016H11.0648H8.9849V13.6373V17.2586H8.44635H7.9078V15.0301V12.8016H5.84646H3.78511V15.0301V17.2586H3.24656H2.70801V8.8832V0.507812H2.13232H1.55662V8.8832ZM14.9647 1.08302V1.65819L16.1949 1.668L17.4252 1.67777L15.433 3.59983L13.4409 5.5219L10.7207 5.52339L8.00066 5.52487L5.97645 7.73334C4.86314 8.94801 3.90225 10.0017 3.84112 10.0748L3.72999 10.2079L3.98968 10.4464C4.13253 10.5777 4.32637 10.7513 4.42049 10.8324L4.5916 10.9797L6.56588 8.82648L8.54013 6.67328L11.2417 6.67094L13.9433 6.6686L16.1161 4.56785L18.2888 2.46713L18.2986 3.73451L18.3084 5.00192H18.8836H19.4588V2.75487V0.507812H17.2117H14.9647V1.08302Z" fill="#222222"/>
</svg>
