<svg width="20" height="17" viewBox="0 0 20 17" fill="none" xmlns="http://www.w3.org/2000/svg">
<path fill-rule="evenodd" clip-rule="evenodd" d="M1.73955 0.91414C1.01739 1.03195 0.378545 1.55208 0.112068 2.23914C0.00481238 2.5157 -0.0326078 3.13402 0.038518 3.45379C0.119028 3.81556 0.307537 4.15195 0.590984 4.43954C1.71562 5.5808 3.62093 5.08874 4.08127 3.53809C4.21375 3.09182 4.14247 2.41416 3.91884 1.99385C3.77937 1.73172 3.31414 1.26457 3.06901 1.14058C2.66646 0.936897 2.14469 0.848019 1.73955 0.91414ZM7.21378 1.63486C6.77905 1.77359 6.43988 2.0816 6.29477 2.46941C6.19983 2.72314 6.18302 3.11114 6.25536 3.37836C6.39096 3.87929 6.84087 4.26479 7.39478 4.35465C7.72096 4.40759 18.498 4.41068 18.82 4.35793C19.3129 4.27719 19.6991 3.99671 19.8985 3.57453C19.9867 3.38771 20 3.30817 20 2.96846C20 2.61342 19.9894 2.5566 19.8852 2.35089C19.7454 2.07495 19.5013 1.84272 19.2053 1.70391L18.9834 1.5999L13.1768 1.59244C8.55805 1.58645 7.3382 1.59513 7.21378 1.63486ZM1.54866 6.47243C0.906456 6.62321 0.271133 7.2301 0.0731229 7.882C-0.0385904 8.24979 -0.0187268 8.91628 0.114062 9.25693C0.302962 9.74156 0.799044 10.2426 1.28543 10.44C1.48348 10.5204 1.63418 10.5496 1.92896 10.5648C2.61954 10.6002 3.07871 10.431 3.53823 9.97144C3.96651 9.54312 4.14336 9.11351 4.14336 8.50134C4.14336 7.89014 3.96639 7.45939 3.54011 7.03315C3.10721 6.60022 2.67799 6.42719 2.05237 6.43333C1.85881 6.43525 1.63214 6.45284 1.54866 6.47243ZM7.32209 7.13489C6.90832 7.21657 6.51804 7.51433 6.33876 7.88517C6.1641 8.24643 6.1639 8.75479 6.33825 9.1175C6.46557 9.38233 6.79164 9.68752 7.06531 9.79798L7.29198 9.88944L12.9781 9.9C16.7207 9.90692 18.7378 9.89691 18.8799 9.87063C19.3232 9.78868 19.7036 9.50476 19.9022 9.10741C19.9879 8.93611 20 8.86107 20 8.50134C20 8.1416 19.9879 8.06656 19.9022 7.89526C19.7051 7.50104 19.3265 7.21638 18.8887 7.13337C18.6324 7.08476 7.56866 7.08621 7.32209 7.13489ZM1.53525 12.0025C0.829152 12.1926 0.240517 12.7819 0.0525945 13.4868C0.0239331 13.5943 0.000237496 13.8419 2.88683e-06 14.0369C-0.000700942 14.5651 0.127239 14.9372 0.443493 15.3269C1.08237 16.1142 2.14304 16.331 3.06733 15.863C3.31394 15.7382 3.77902 15.2716 3.91884 15.0088C4.14247 14.5885 4.21375 13.9108 4.08127 13.4646C3.86926 12.7504 3.29427 12.1835 2.59815 12.0021C2.31564 11.9286 1.80904 11.9287 1.53525 12.0025ZM7.35912 12.6505C6.98038 12.7136 6.64856 12.9281 6.43718 13.2466C5.96605 13.9564 6.23886 14.9345 7.00689 15.2892L7.25288 15.4028H13.1181H18.9834L19.2053 15.2988C19.5013 15.1599 19.7454 14.9277 19.8852 14.6518C19.9894 14.4461 20 14.3893 20 14.0342C20 13.6945 19.9867 13.615 19.8985 13.4281C19.6991 13.006 19.3129 12.7255 18.82 12.6447C18.5307 12.5973 7.64538 12.6029 7.35912 12.6505Z" fill="#222222"/>
</svg>
