<svg width="30" height="30" viewBox="0 0 30 30" fill="none" xmlns="http://www.w3.org/2000/svg">
<rect x="0.5" y="0.5" width="29" height="29" rx="4.5" stroke="#030087" stroke-opacity="0.3"/>
<path fill-rule="evenodd" clip-rule="evenodd" d="M12.4101 5.04379C12.0218 5.16331 11.6647 5.46813 11.4979 5.82238C11.441 5.9432 11.3616 6.26942 11.2883 6.68366C11.2234 7.05039 11.1396 7.41821 11.1022 7.50101C10.9354 7.86934 10.5736 8.11072 10.1437 8.14057C9.90969 8.15681 9.85525 8.14313 9.20715 7.90535C8.534 7.6584 8.51118 7.65294 8.15589 7.65267C7.65014 7.6523 7.4191 7.74284 7.08552 8.07204C6.87145 8.28328 6.72401 8.50901 6.02097 9.70191C5.57214 10.4635 5.17362 11.1495 5.13539 11.2264C4.94521 11.6091 4.96046 12.1267 5.17381 12.5305C5.31261 12.7932 5.40604 12.8873 6.00671 13.3695C6.64556 13.8823 6.77634 14.0752 6.77634 14.5046C6.77634 14.9339 6.64556 15.1268 6.00671 15.6397C5.40677 16.1213 5.31257 16.216 5.17473 16.4768C5.02025 16.7691 4.96612 17.0926 5.02067 17.3972C5.07625 17.7076 5.06077 17.678 6.02097 19.3072C6.72401 20.5001 6.87145 20.7258 7.08552 20.9371C7.4191 21.2663 7.65014 21.3568 8.15589 21.3564C8.51118 21.3562 8.534 21.3507 9.20715 21.1038C9.85525 20.866 9.90969 20.8523 10.1437 20.8685C10.5736 20.8984 10.9354 21.1398 11.1022 21.5081C11.1396 21.5909 11.2234 21.9587 11.2883 22.3255C11.3627 22.7458 11.4408 23.0654 11.4996 23.1902C11.6214 23.449 11.9574 23.7726 12.236 23.8995L12.4565 24H14.5016H16.5468L16.7673 23.8995C17.0459 23.7726 17.3819 23.449 17.5037 23.1902C17.5625 23.0654 17.6406 22.7458 17.715 22.3255C17.7799 21.9587 17.8637 21.5909 17.9011 21.5081C18.0679 21.1398 18.4297 20.8984 18.8596 20.8685C19.0936 20.8523 19.148 20.866 19.7961 21.1038C20.4693 21.3507 20.4921 21.3562 20.8474 21.3564C21.3531 21.3568 21.5842 21.2663 21.9178 20.9371C22.1316 20.726 22.2795 20.4998 22.9798 19.3123C23.4272 18.5536 23.8257 17.8676 23.8653 17.7879C24.055 17.4062 24.0408 16.8786 23.8302 16.4799C23.6906 16.2159 23.5977 16.1222 22.9966 15.6397C22.3577 15.1268 22.2269 14.9339 22.2269 14.5046C22.2269 14.0926 22.3656 13.874 22.8926 13.455C23.7142 12.8017 23.9008 12.5646 23.9819 12.0712C24.0285 11.7875 23.9835 11.459 23.8653 11.2213C23.8257 11.1415 23.4272 10.4555 22.9798 9.69678C22.2795 8.50935 22.1316 8.28309 21.9178 8.072C21.5842 7.74284 21.3531 7.6523 20.8474 7.65267C20.4921 7.65294 20.4693 7.6584 19.7961 7.90535C19.148 8.14313 19.0936 8.15681 18.8596 8.14057C18.4297 8.11072 18.0679 7.86934 17.9011 7.50101C17.8637 7.41821 17.78 7.04943 17.7153 6.6815C17.6255 6.17139 17.5701 5.95799 17.4819 5.78269C17.3449 5.51016 17.0614 5.24533 16.7571 5.10563L16.5468 5.00911L14.559 5.00164C12.9906 4.99577 12.5372 5.00469 12.4101 5.04379ZM16.1812 7.02527C16.2837 7.65576 16.3983 8.03996 16.5752 8.34668C17.0474 9.16518 17.9443 9.67322 18.9169 9.67322C19.3347 9.67322 19.6369 9.60405 20.3356 9.34855L20.8368 9.16526L21.6304 10.5005C22.2888 11.6082 22.4151 11.8435 22.3716 11.8814C22.3427 11.9066 22.1259 12.0819 21.8896 12.2709C21.3376 12.7126 21.1503 12.9223 20.9401 13.3339C20.7399 13.7259 20.6576 14.0669 20.6576 14.5046C20.6576 14.9422 20.7399 15.2832 20.9401 15.6752C21.1503 16.0868 21.3376 16.2965 21.8896 16.7382C22.1259 16.9272 22.3427 17.1025 22.3716 17.1277C22.4151 17.1657 22.2888 17.4009 21.6304 18.5087L20.8368 19.8439L20.3356 19.6606C19.6369 19.4051 19.3347 19.3359 18.9169 19.3359C17.7339 19.3359 16.715 20.0618 16.3605 21.1569C16.3109 21.3102 16.2302 21.6823 16.1812 21.9838L16.0921 22.532H14.5016H12.9112L12.8221 21.9838C12.7731 21.6823 12.6924 21.3102 12.6428 21.1569C12.2883 20.0618 11.2694 19.3359 10.0864 19.3359C9.66855 19.3359 9.36636 19.4051 8.66779 19.6605L8.16667 19.8437L7.37322 18.5084C6.71686 17.4037 6.5888 17.1651 6.63196 17.1275C6.66066 17.1024 6.87741 16.9272 7.11366 16.7382C7.6657 16.2965 7.85302 16.0868 8.06319 15.6752C8.26339 15.2832 8.34569 14.9422 8.34569 14.5046C8.34569 14.0669 8.26339 13.7259 8.06319 13.3339C7.85302 12.9223 7.6657 12.7126 7.11366 12.2709C6.87741 12.0819 6.66066 11.9067 6.63196 11.8817C6.5888 11.844 6.71678 11.6055 7.37288 10.5013L8.16602 9.16645L8.71436 9.36442C9.48273 9.64185 9.6924 9.68407 10.2011 9.66378C10.9441 9.63412 11.5391 9.36776 12.0551 8.83364C12.4895 8.38403 12.6695 7.95939 12.8218 7.02527L12.9112 6.4771H14.5016H16.0921L16.1812 7.02527ZM13.7371 10.8983C11.9525 11.2705 10.7171 12.7457 10.7171 14.5046C10.7171 16.299 12.0299 17.8214 13.842 18.1286C16.1696 18.5232 18.2862 16.7972 18.2862 14.5046C18.2862 12.7199 17.0009 11.2173 15.1885 10.883C14.7736 10.8065 14.1455 10.8131 13.7371 10.8983ZM15.0757 12.426C15.4639 12.5306 15.6938 12.6583 16.0033 12.9411C16.9132 13.7723 16.9596 15.0889 16.1099 15.9652C15.2506 16.8514 13.9026 16.896 12.9992 16.0681C12.045 15.1936 12.0453 13.8136 12.9998 12.9411C13.5724 12.4176 14.3388 12.2275 15.0757 12.426Z" fill="#030087" fill-opacity="0.3"/>
</svg>
