<svg width="13" height="13" viewBox="0 0 13 13" fill="none" xmlns="http://www.w3.org/2000/svg">
<path fill-rule="evenodd" clip-rule="evenodd" d="M4.6581 0.0373186C3.76247 0.162623 2.87559 0.525204 2.12734 1.07193C1.85481 1.27106 1.32906 1.77998 1.11928 2.0477C0.793332 2.46369 0.445129 3.08727 0.291942 3.52936C-0.525647 5.88861 0.415464 8.42114 2.59615 9.72998C4.33341 10.7727 6.62758 10.7586 8.34348 9.69476L8.54343 9.5708L8.8718 9.89447C9.05239 10.0725 9.79788 10.819 10.5284 11.5535C12.0365 13.0696 11.9676 13.0146 12.3342 12.9936C12.5575 12.9808 12.6576 12.9399 12.7981 12.804C12.9352 12.6715 13 12.514 13 12.3133C13 12.0634 12.9365 11.9523 12.6041 11.6204C11.5002 10.5183 9.62901 8.63023 9.62901 8.61857C9.62901 8.61078 9.68668 8.53322 9.75715 8.44623C10.1883 7.91398 10.5223 7.2487 10.7091 6.54998C11.126 4.99071 10.7817 3.36391 9.7556 2.04463C9.55034 1.78071 9.0233 1.27221 8.74142 1.06612C7.98298 0.511541 7.11833 0.163004 6.18176 0.0343219C5.83923 -0.0127372 5.00404 -0.0110864 4.6581 0.0373186ZM5.97671 1.4208C6.78526 1.51827 7.57289 1.88743 8.1931 2.45963C9.44545 3.61508 9.78606 5.37097 9.05273 6.89125C8.71774 7.58571 8.11932 8.20883 7.4097 8.60209C6.39273 9.16571 5.15704 9.2613 4.04096 8.86271C2.3942 8.27458 1.30739 6.62891 1.45834 4.95208C1.49171 4.58135 1.54305 4.34006 1.65906 4.00879C2.22304 2.39837 3.84027 1.31774 5.58257 1.3871C5.67651 1.39083 5.85387 1.40599 5.97671 1.4208Z" fill="#666666"/>
</svg>
