<svg width="19" height="19" viewBox="0 0 19 19" fill="none" xmlns="http://www.w3.org/2000/svg">
<path fill-rule="evenodd" clip-rule="evenodd" d="M7.41007 0.0437877C7.02183 0.163308 6.66475 0.468128 6.49792 0.822377C6.441 0.943197 6.36164 1.26942 6.28832 1.68366C6.22341 2.05039 6.13962 2.41821 6.10216 2.50101C5.93537 2.86934 5.57362 3.11072 5.14372 3.14057C4.90969 3.15681 4.85525 3.14313 4.20715 2.90535C3.534 2.6584 3.51118 2.65294 3.15589 2.65267C2.65014 2.6523 2.4191 2.74284 2.08552 3.07204C1.87145 3.28328 1.72401 3.50901 1.02097 4.70191C0.572138 5.46347 0.173617 6.14949 0.13539 6.22638C-0.0547917 6.6091 -0.0395389 7.12672 0.173808 7.53047C0.312612 7.79318 0.40604 7.88728 1.00671 8.36945C1.64556 8.88232 1.77634 9.0752 1.77634 9.50456C1.77634 9.93392 1.64556 10.1268 1.00671 10.6397C0.406766 11.1213 0.312574 11.216 0.174726 11.4768C0.0202488 11.7691 -0.0338813 12.0926 0.0206693 12.3972C0.0762519 12.7076 0.0607699 12.678 1.02097 14.3072C1.72401 15.5001 1.87145 15.7258 2.08552 15.9371C2.4191 16.2663 2.65014 16.3568 3.15589 16.3564C3.51118 16.3562 3.534 16.3507 4.20715 16.1038C4.85525 15.866 4.90969 15.8523 5.14372 15.8685C5.57362 15.8984 5.93537 16.1398 6.10216 16.5081C6.13962 16.5909 6.22341 16.9587 6.28832 17.3255C6.36271 17.7458 6.44077 18.0654 6.49957 18.1902C6.62144 18.449 6.95742 18.7726 7.23598 18.8995L7.45648 19H9.50164H11.5468L11.7673 18.8995C12.0459 18.7726 12.3819 18.449 12.5037 18.1902C12.5625 18.0654 12.6406 17.7458 12.715 17.3255C12.7799 16.9587 12.8637 16.5909 12.9011 16.5081C13.0679 16.1398 13.4297 15.8984 13.8596 15.8685C14.0936 15.8523 14.148 15.866 14.7961 16.1038C15.4693 16.3507 15.4921 16.3562 15.8474 16.3564C16.3531 16.3568 16.5842 16.2663 16.9178 15.9371C17.1316 15.726 17.2795 15.4998 17.9798 14.3123C18.4272 13.5536 18.8257 12.8676 18.8653 12.7879C19.055 12.4062 19.0408 11.8786 18.8302 11.4799C18.6906 11.2159 18.5977 11.1222 17.9966 10.6397C17.3577 10.1268 17.2269 9.93392 17.2269 9.50456C17.2269 9.09259 17.3656 8.87403 17.8926 8.45497C18.7142 7.80166 18.9008 7.56459 18.9819 7.07123C19.0285 6.78749 18.9835 6.45895 18.8653 6.22125C18.8257 6.14154 18.4272 5.45552 17.9798 4.69678C17.2795 3.50935 17.1316 3.28309 16.9178 3.072C16.5842 2.74284 16.3531 2.6523 15.8474 2.65267C15.4921 2.65294 15.4693 2.6584 14.7961 2.90535C14.148 3.14313 14.0936 3.15681 13.8596 3.14057C13.4297 3.11072 13.0679 2.86934 12.9011 2.50101C12.8637 2.41821 12.78 2.04943 12.7153 1.6815C12.6255 1.17139 12.5701 0.957989 12.4819 0.782686C12.3449 0.510161 12.0614 0.245329 11.7571 0.105629L11.5468 0.0091135L9.55898 0.0016435C7.99063 -0.00422844 7.53717 0.00469096 7.41007 0.0437877ZM11.1812 2.02527C11.2837 2.65576 11.3983 3.03996 11.5752 3.34668C12.0474 4.16518 12.9443 4.67322 13.9169 4.67322C14.3347 4.67322 14.6369 4.60405 15.3356 4.34855L15.8368 4.16526L16.6304 5.50045C17.2888 6.60821 17.4151 6.84345 17.3716 6.88144C17.3427 6.90663 17.1259 7.0819 16.8896 7.27092C16.3376 7.71265 16.1503 7.92229 15.9401 8.33389C15.7399 8.72589 15.6576 9.06691 15.6576 9.50456C15.6576 9.9422 15.7399 10.2832 15.9401 10.6752C16.1503 11.0868 16.3376 11.2965 16.8896 11.7382C17.1259 11.9272 17.3427 12.1025 17.3716 12.1277C17.4151 12.1657 17.2888 12.4009 16.6304 13.5087L15.8368 14.8439L15.3356 14.6606C14.6369 14.4051 14.3347 14.3359 13.9169 14.3359C12.7339 14.3359 11.715 15.0618 11.3605 16.1569C11.3109 16.3102 11.2302 16.6823 11.1812 16.9838L11.0921 17.532H9.50164H7.91119L7.82208 16.9838C7.77308 16.6823 7.69238 16.3102 7.64276 16.1569C7.28831 15.0618 6.2694 14.3359 5.08638 14.3359C4.66855 14.3359 4.36636 14.4051 3.66779 14.6605L3.16667 14.8437L2.37322 13.5084C1.71686 12.4037 1.5888 12.1651 1.63196 12.1275C1.66066 12.1024 1.87741 11.9272 2.11366 11.7382C2.6657 11.2965 2.85302 11.0868 3.06319 10.6752C3.26339 10.2832 3.34569 9.9422 3.34569 9.50456C3.34569 9.06691 3.26339 8.72589 3.06319 8.33389C2.85302 7.92229 2.6657 7.71265 2.11366 7.27092C1.87741 7.0819 1.66066 6.90674 1.63196 6.88166C1.5888 6.84397 1.71678 6.60549 2.37288 5.50127L3.16602 4.16645L3.71436 4.36442C4.48273 4.64185 4.6924 4.68407 5.20106 4.66378C5.94412 4.63412 6.53906 4.36776 7.05509 3.83364C7.48947 3.38403 7.66952 2.95939 7.82182 2.02527L7.91119 1.4771H9.50164H11.0921L11.1812 2.02527ZM8.7371 5.8983C6.95249 6.27049 5.71713 7.74565 5.71713 9.50456C5.71713 11.299 7.02986 12.8214 8.84203 13.1286C11.1696 13.5232 13.2862 11.7972 13.2862 9.50456C13.2862 7.7199 12.0009 6.21728 10.1885 5.88302C9.77363 5.80654 9.14548 5.81312 8.7371 5.8983ZM10.0757 7.42604C10.4639 7.53062 10.6938 7.65828 11.0033 7.94106C11.9132 8.77235 11.9596 10.0889 11.1099 10.9652C10.2506 11.8514 8.90258 11.896 7.99919 11.0681C7.04496 10.1936 7.04526 8.8136 7.99984 7.94106C8.57245 7.41764 9.33883 7.22751 10.0757 7.42604Z" fill="#222222"/>
</svg>
