<svg width="154" height="96" viewBox="0 0 154 96" fill="none" xmlns="http://www.w3.org/2000/svg">
<rect x="0.5" y="0.5" width="153" height="19" stroke="#C8C8C8"/>
<rect x="0.5" y="0.5" width="17" height="95" stroke="#C8C8C8"/>
<rect x="0.5" y="0.5" width="17" height="38" stroke="#C8C8C8"/>
<rect x="0.5" y="19.5" width="51" height="19" stroke="#222222"/>
<rect x="17.5" y="0.5" width="17" height="38" stroke="#C8C8C8"/>
<rect x="34.5" y="0.5" width="17" height="38" stroke="#C8C8C8"/>
<rect x="34.5" y="0.5" width="17" height="95" stroke="#C8C8C8"/>
<rect x="51.5" y="0.5" width="17" height="95" stroke="#C8C8C8"/>
<rect x="68.5" y="0.5" width="17" height="95" stroke="#C8C8C8"/>
<rect x="85.5" y="0.5" width="17" height="95" stroke="#C8C8C8"/>
<rect x="102.5" y="0.5" width="17" height="95" stroke="#C8C8C8"/>
<rect x="119.5" y="0.5" width="17" height="95" stroke="#C8C8C8"/>
<rect x="136.5" y="0.5" width="17" height="95" stroke="#C8C8C8"/>
<rect x="0.5" y="19.5" width="153" height="19" stroke="#C8C8C8"/>
<rect x="0.5" y="38.5" width="153" height="19" stroke="#C8C8C8"/>
<rect x="0.5" y="57.5" width="153" height="19" stroke="#C8C8C8"/>
<rect x="0.5" y="76.5" width="153" height="19" stroke="#C8C8C8"/>
<rect x="0.5" y="0.5" width="51" height="19" stroke="#222222"/>
<rect x="0.5" y="19.5" width="51" height="19" stroke="#222222"/>
<rect x="17.5" y="0.5" width="17" height="19" stroke="#222222"/>
<rect x="17.5" y="19.5" width="17" height="19" stroke="#222222"/>
</svg>
