<svg width="30" height="30" viewBox="0 0 30 30" fill="none" xmlns="http://www.w3.org/2000/svg">
<rect x="0.5" y="0.5" width="29" height="29" rx="4.5" stroke="#030087" stroke-opacity="0.3"/>
<path fill-rule="evenodd" clip-rule="evenodd" d="M8.37704 10.9672C8.17251 11.0542 8.00619 11.2122 7.92028 11.4011C7.86287 11.5273 7.85548 12.0895 7.85548 16.3314C7.85548 21.5166 7.85001 21.3821 8.08305 21.9495C8.41414 22.7557 9.20408 23.4852 10.07 23.7846C10.702 24.003 10.6343 24.0001 14.9905 24.0001C19.3466 24.0001 19.2789 24.003 19.9109 23.7846C20.7692 23.4879 21.5678 22.7545 21.8908 21.9662C22.133 21.3752 22.1255 21.556 22.1245 16.3281C22.1237 11.7365 22.1202 11.5201 22.0463 11.3736C21.7572 10.8 20.8631 10.7282 20.4716 11.247L20.3521 11.4053L20.3313 16.2369C20.3086 21.4919 20.3264 21.1057 20.0867 21.5372C19.8792 21.9108 19.3569 22.238 18.8453 22.3149C18.5185 22.3641 11.4624 22.3641 11.1356 22.3149C10.6164 22.2368 10.1046 21.9159 9.89358 21.536C9.65462 21.1059 9.67236 21.4906 9.64966 16.2369L9.62879 11.4053L9.50934 11.247C9.27271 10.9335 8.75645 10.8059 8.37704 10.9672ZM12.7999 12.604C12.6144 12.6968 12.4885 12.8125 12.3995 12.9719C12.3234 13.1082 12.3201 13.2423 12.3201 16.2135V19.3129L12.4172 19.4818C12.4705 19.5747 12.5942 19.7025 12.692 19.7657C12.8547 19.871 12.8987 19.8806 13.2139 19.8806C13.5247 19.8806 13.5748 19.87 13.7305 19.7709C13.8382 19.7024 13.9425 19.5881 14.0085 19.4664L14.1142 19.2716V16.2211V13.1705L14.0085 12.9757C13.9425 12.854 13.8382 12.7398 13.7305 12.6712C13.5833 12.5775 13.5118 12.56 13.2416 12.5514C13.0109 12.5441 12.8911 12.5583 12.7999 12.604ZM16.3883 12.5963C16.205 12.6709 16.0407 12.8263 15.9491 13.0116C15.8717 13.1682 15.8685 13.2937 15.8676 16.2231L15.8667 19.2716L15.9724 19.4664C16.1286 19.7543 16.3418 19.8762 16.7178 19.8927C17.097 19.9092 17.3266 19.8086 17.5253 19.5388L17.6609 19.3547V16.234C17.6609 12.8461 17.6718 13.0155 17.4369 12.7781C17.2185 12.5573 16.7034 12.468 16.3883 12.5963Z" fill="#030087" fill-opacity="0.3"/>
<path d="M11.5164 6.42282C11.6118 6.25873 11.803 6.10001 11.9874 6.03172C12.0532 6.00739 13.158 5.99628 15.0389 6.00111L17.9874 6.00866L18.1683 6.1253C18.2678 6.18949 18.3962 6.31882 18.4535 6.4127C18.5556 6.57978 18.5581 6.60342 18.5709 7.51272L18.5841 8.44199H20.4508H22.3176L22.5297 8.53905C22.8499 8.68563 22.977 8.878 22.995 9.24342C23.0086 9.51978 23.0025 9.54347 22.8698 9.72353C22.783 9.84148 22.661 9.94629 22.5465 10.0014L22.3625 10.0898H14.9903H7.61816L7.43423 10.0006C7.33309 9.95158 7.19402 9.838 7.12518 9.74821C7.01056 9.59876 7 9.5583 7 9.26886C7 8.98342 7.0116 8.93739 7.11946 8.79446C7.1941 8.69552 7.31849 8.59972 7.45101 8.53905L7.66314 8.44199H9.52987H11.3966L11.4098 7.51272C11.4221 6.63588 11.4281 6.57438 11.5164 6.42282Z" fill="#030087" fill-opacity="0.3"/>
</svg>
