<svg width="19" height="11" viewBox="0 0 19 11" fill="none" xmlns="http://www.w3.org/2000/svg">
<path d="M8.57492 10.417L7.58099 8.03158H2.81016L1.83043 10.417H0.509936L4.57082 0.477756H5.73513L9.92381 10.417H8.57492ZM5.18138 2.19582L3.27872 6.89566H7.11243L5.18138 2.19582ZM17.7274 2.74958H18.693V10.417H17.6848L17.5571 9.25268C17.1974 9.67865 16.7572 10.01 16.2366 10.2466C15.7254 10.4738 15.1622 10.5874 14.5469 10.5874C13.4204 10.5874 12.4786 10.2087 11.7213 9.45147C10.964 8.68473 10.5854 7.72867 10.5854 6.58329C10.5854 5.43791 10.964 4.48658 11.7213 3.72931C12.4786 2.96257 13.4204 2.57919 14.5469 2.57919C15.1716 2.57919 15.7396 2.69752 16.2508 2.93417C16.7714 3.17082 17.2115 3.50212 17.5713 3.92809L17.7274 2.74958ZM12.6158 8.61373C13.1554 9.15329 13.8322 9.42307 14.6463 9.42307C15.4604 9.42307 16.1324 9.15329 16.6625 8.61373C17.1926 8.07417 17.4577 7.39736 17.4577 6.58329C17.4577 5.76922 17.1926 5.0924 16.6625 4.55284C16.1324 4.01328 15.4604 3.74351 14.6463 3.74351C13.8322 3.74351 13.1554 4.01802 12.6158 4.56704C12.0857 5.1066 11.8207 5.77868 11.8207 6.58329C11.8207 7.38789 12.0857 8.06471 12.6158 8.61373Z" fill="#222222"/>
</svg>
